<mxfile host="Electron" agent="Mozilla/5.0 (Macintosh; Intel Mac OS X 10_15_7) AppleWebKit/537.36 (KHTML, like Gecko) draw.io/28.0.6 Chrome/138.0.7204.100 Electron/37.2.3 Safari/537.36" version="28.0.6">
  <diagram name="페이지-1" id="fczIgLdnD5gif_x-forv">
    <mxGraphModel dx="1053" dy="1037" grid="1" gridSize="10" guides="1" tooltips="1" connect="1" arrows="1" fold="1" page="1" pageScale="1" pageWidth="827" pageHeight="1169" math="0" shadow="0">
      <root>
        <mxCell id="0" />
        <mxCell id="1" parent="0" />
        <mxCell id="JWYKsViawVH97r5eibI3-93" style="edgeStyle=orthogonalEdgeStyle;rounded=0;orthogonalLoop=1;jettySize=auto;html=1;" edge="1" parent="1" source="JWYKsViawVH97r5eibI3-1" target="JWYKsViawVH97r5eibI3-2">
          <mxGeometry relative="1" as="geometry" />
        </mxCell>
        <mxCell id="JWYKsViawVH97r5eibI3-96" value="1. release 브랜치&lt;div&gt;에 버전 배포&lt;/div&gt;" style="edgeLabel;html=1;align=center;verticalAlign=middle;resizable=0;points=[];" vertex="1" connectable="0" parent="JWYKsViawVH97r5eibI3-93">
          <mxGeometry x="-0.126" y="5" relative="1" as="geometry">
            <mxPoint y="5" as="offset" />
          </mxGeometry>
        </mxCell>
        <mxCell id="JWYKsViawVH97r5eibI3-1" value="Developer" style="shape=umlActor;verticalLabelPosition=bottom;verticalAlign=top;html=1;outlineConnect=0;" vertex="1" parent="1">
          <mxGeometry x="120" y="30" width="30" height="60" as="geometry" />
        </mxCell>
        <mxCell id="JWYKsViawVH97r5eibI3-2" value="Github&lt;div&gt;Repository&lt;/div&gt;" style="dashed=0;outlineConnect=0;html=1;align=left;labelPosition=right;verticalLabelPosition=middle;verticalAlign=middle;shape=mxgraph.weblogos.github" vertex="1" parent="1">
          <mxGeometry x="320" y="40" width="40" height="40" as="geometry" />
        </mxCell>
        <mxCell id="JWYKsViawVH97r5eibI3-8" value="AWS Cloud" style="points=[[0,0],[0.25,0],[0.5,0],[0.75,0],[1,0],[1,0.25],[1,0.5],[1,0.75],[1,1],[0.75,1],[0.5,1],[0.25,1],[0,1],[0,0.75],[0,0.5],[0,0.25]];outlineConnect=0;gradientColor=none;html=1;whiteSpace=wrap;fontSize=12;fontStyle=0;container=1;pointerEvents=0;collapsible=0;recursiveResize=0;shape=mxgraph.aws4.group;grIcon=mxgraph.aws4.group_aws_cloud_alt;strokeColor=#232F3E;fillColor=none;verticalAlign=top;align=left;spacingLeft=30;fontColor=#232F3E;dashed=0;" vertex="1" parent="1">
          <mxGeometry x="120" y="130" width="920" height="710" as="geometry" />
        </mxCell>
        <mxCell id="JWYKsViawVH97r5eibI3-9" value="ap-notheast-2" style="points=[[0,0],[0.25,0],[0.5,0],[0.75,0],[1,0],[1,0.25],[1,0.5],[1,0.75],[1,1],[0.75,1],[0.5,1],[0.25,1],[0,1],[0,0.75],[0,0.5],[0,0.25]];outlineConnect=0;gradientColor=none;html=1;whiteSpace=wrap;fontSize=12;fontStyle=0;container=1;pointerEvents=0;collapsible=0;recursiveResize=0;shape=mxgraph.aws4.group;grIcon=mxgraph.aws4.group_region;strokeColor=#00A4A6;fillColor=none;verticalAlign=top;align=left;spacingLeft=30;fontColor=#147EBA;dashed=1;" vertex="1" parent="JWYKsViawVH97r5eibI3-8">
          <mxGeometry x="121" y="30" width="759" height="640" as="geometry" />
        </mxCell>
        <mxCell id="JWYKsViawVH97r5eibI3-10" value="&lt;div&gt;&lt;font style=&quot;color: rgb(0, 0, 0);&quot;&gt;manibogo-v2-vpc&amp;nbsp;&lt;/font&gt;&lt;span style=&quot;color: rgb(0, 0, 0); background-color: transparent;&quot;&gt;(10.0.0.0/16)&lt;/span&gt;&lt;/div&gt;" style="points=[[0,0],[0.25,0],[0.5,0],[0.75,0],[1,0],[1,0.25],[1,0.5],[1,0.75],[1,1],[0.75,1],[0.5,1],[0.25,1],[0,1],[0,0.75],[0,0.5],[0,0.25]];outlineConnect=0;gradientColor=none;html=1;whiteSpace=wrap;fontSize=12;fontStyle=0;container=1;pointerEvents=0;collapsible=0;recursiveResize=0;shape=mxgraph.aws4.group;grIcon=mxgraph.aws4.group_vpc2;strokeColor=#8C4FFF;fillColor=none;verticalAlign=top;align=left;spacingLeft=30;fontColor=#AAB7B8;dashed=0;" vertex="1" parent="JWYKsViawVH97r5eibI3-9">
          <mxGeometry x="239" y="40" width="481" height="560" as="geometry" />
        </mxCell>
        <mxCell id="JWYKsViawVH97r5eibI3-12" value="ap-northeast-2a" style="fillColor=none;strokeColor=#147EBA;dashed=1;verticalAlign=top;fontStyle=0;fontColor=#147EBA;whiteSpace=wrap;html=1;" vertex="1" parent="JWYKsViawVH97r5eibI3-10">
          <mxGeometry x="30" y="40" width="180" height="490" as="geometry" />
        </mxCell>
        <mxCell id="JWYKsViawVH97r5eibI3-13" value="ap-northeast-2b" style="fillColor=none;strokeColor=#147EBA;dashed=1;verticalAlign=top;fontStyle=0;fontColor=#147EBA;whiteSpace=wrap;html=1;" vertex="1" parent="JWYKsViawVH97r5eibI3-10">
          <mxGeometry x="270" y="40" width="180" height="490" as="geometry" />
        </mxCell>
        <mxCell id="JWYKsViawVH97r5eibI3-20" value="private-subnet1-a1&lt;div&gt;(10.0.128.0/20)&lt;/div&gt;" style="points=[[0,0],[0.25,0],[0.5,0],[0.75,0],[1,0],[1,0.25],[1,0.5],[1,0.75],[1,1],[0.75,1],[0.5,1],[0.25,1],[0,1],[0,0.75],[0,0.5],[0,0.25]];outlineConnect=0;gradientColor=none;html=1;whiteSpace=wrap;fontSize=12;fontStyle=0;container=1;pointerEvents=0;collapsible=0;recursiveResize=0;shape=mxgraph.aws4.group;grIcon=mxgraph.aws4.group_security_group;grStroke=0;strokeColor=#00A4A6;fillColor=#E6F6F7;verticalAlign=top;align=left;spacingLeft=30;fontColor=#147EBA;dashed=0;" vertex="1" parent="JWYKsViawVH97r5eibI3-10">
          <mxGeometry x="40" y="160" width="160" height="350" as="geometry" />
        </mxCell>
        <mxCell id="JWYKsViawVH97r5eibI3-21" value="private-subnet1-a2&lt;div&gt;(10.0.144.0/20)&lt;/div&gt;" style="points=[[0,0],[0.25,0],[0.5,0],[0.75,0],[1,0],[1,0.25],[1,0.5],[1,0.75],[1,1],[0.75,1],[0.5,1],[0.25,1],[0,1],[0,0.75],[0,0.5],[0,0.25]];outlineConnect=0;gradientColor=none;html=1;whiteSpace=wrap;fontSize=12;fontStyle=0;container=1;pointerEvents=0;collapsible=0;recursiveResize=0;shape=mxgraph.aws4.group;grIcon=mxgraph.aws4.group_security_group;grStroke=0;strokeColor=#00A4A6;fillColor=#E6F6F7;verticalAlign=top;align=left;spacingLeft=30;fontColor=#147EBA;dashed=0;" vertex="1" parent="JWYKsViawVH97r5eibI3-10">
          <mxGeometry x="280" y="160" width="160" height="350" as="geometry" />
        </mxCell>
        <mxCell id="JWYKsViawVH97r5eibI3-83" style="edgeStyle=orthogonalEdgeStyle;rounded=0;orthogonalLoop=1;jettySize=auto;html=1;startArrow=cross;startFill=0;" edge="1" parent="JWYKsViawVH97r5eibI3-10" source="JWYKsViawVH97r5eibI3-23" target="JWYKsViawVH97r5eibI3-48">
          <mxGeometry relative="1" as="geometry" />
        </mxCell>
        <mxCell id="JWYKsViawVH97r5eibI3-88" value="8. Blue 그룹&lt;div&gt;트래픽&amp;nbsp;&lt;span style=&quot;background-color: light-dark(#ffffff, var(--ge-dark-color, #121212)); color: light-dark(rgb(0, 0, 0), rgb(255, 255, 255));&quot;&gt;Draining&lt;/span&gt;&lt;/div&gt;" style="edgeLabel;html=1;align=center;verticalAlign=middle;resizable=0;points=[];" vertex="1" connectable="0" parent="JWYKsViawVH97r5eibI3-83">
          <mxGeometry x="-0.19" y="1" relative="1" as="geometry">
            <mxPoint x="-1" y="9" as="offset" />
          </mxGeometry>
        </mxCell>
        <mxCell id="JWYKsViawVH97r5eibI3-23" value="server-alb" style="sketch=0;outlineConnect=0;fontColor=#232F3E;gradientColor=none;fillColor=#8C4FFF;strokeColor=none;dashed=0;verticalLabelPosition=top;verticalAlign=bottom;align=center;html=1;fontSize=12;fontStyle=0;aspect=fixed;pointerEvents=1;shape=mxgraph.aws4.application_load_balancer;labelPosition=center;" vertex="1" parent="JWYKsViawVH97r5eibI3-10">
          <mxGeometry x="220" y="60" width="40" height="40" as="geometry" />
        </mxCell>
        <mxCell id="JWYKsViawVH97r5eibI3-48" value="Auto Scaling group&lt;div&gt;(Blue)&lt;/div&gt;" style="points=[[0,0],[0.25,0],[0.5,0],[0.75,0],[1,0],[1,0.25],[1,0.5],[1,0.75],[1,1],[0.75,1],[0.5,1],[0.25,1],[0,1],[0,0.75],[0,0.5],[0,0.25]];outlineConnect=0;gradientColor=none;html=1;whiteSpace=wrap;fontSize=12;fontStyle=0;container=1;pointerEvents=0;collapsible=0;recursiveResize=0;shape=mxgraph.aws4.groupCenter;grIcon=mxgraph.aws4.group_auto_scaling_group;grStroke=1;strokeColor=#3333FF;fillColor=#DFDFFF;verticalAlign=top;align=center;fontColor=#3333FF;dashed=1;spacingTop=25;" vertex="1" parent="JWYKsViawVH97r5eibI3-10">
          <mxGeometry x="70" y="200" width="340" height="120" as="geometry" />
        </mxCell>
        <mxCell id="JWYKsViawVH97r5eibI3-49" value="was-node" style="sketch=0;points=[[0,0,0],[0.25,0,0],[0.5,0,0],[0.75,0,0],[1,0,0],[0,1,0],[0.25,1,0],[0.5,1,0],[0.75,1,0],[1,1,0],[0,0.25,0],[0,0.5,0],[0,0.75,0],[1,0.25,0],[1,0.5,0],[1,0.75,0]];outlineConnect=0;fontColor=#232F3E;fillColor=#ED7100;strokeColor=#ffffff;dashed=0;verticalLabelPosition=bottom;verticalAlign=top;align=center;html=1;fontSize=12;fontStyle=0;aspect=fixed;shape=mxgraph.aws4.resourceIcon;resIcon=mxgraph.aws4.ec2;" vertex="1" parent="JWYKsViawVH97r5eibI3-48">
          <mxGeometry x="50" y="40" width="40" height="40" as="geometry" />
        </mxCell>
        <mxCell id="JWYKsViawVH97r5eibI3-22" value="was-node" style="sketch=0;points=[[0,0,0],[0.25,0,0],[0.5,0,0],[0.75,0,0],[1,0,0],[0,1,0],[0.25,1,0],[0.5,1,0],[0.75,1,0],[1,1,0],[0,0.25,0],[0,0.5,0],[0,0.75,0],[1,0.25,0],[1,0.5,0],[1,0.75,0]];outlineConnect=0;fontColor=#232F3E;fillColor=#ED7100;strokeColor=#ffffff;dashed=0;verticalLabelPosition=bottom;verticalAlign=top;align=center;html=1;fontSize=12;fontStyle=0;aspect=fixed;shape=mxgraph.aws4.resourceIcon;resIcon=mxgraph.aws4.ec2;" vertex="1" parent="JWYKsViawVH97r5eibI3-48">
          <mxGeometry x="250" y="40" width="40" height="40" as="geometry" />
        </mxCell>
        <mxCell id="JWYKsViawVH97r5eibI3-66" value="Auto Scaling group&lt;div&gt;(Green)&lt;/div&gt;" style="points=[[0,0],[0.25,0],[0.5,0],[0.75,0],[1,0],[1,0.25],[1,0.5],[1,0.75],[1,1],[0.75,1],[0.5,1],[0.25,1],[0,1],[0,0.75],[0,0.5],[0,0.25]];outlineConnect=0;gradientColor=none;html=1;whiteSpace=wrap;fontSize=12;fontStyle=0;container=1;pointerEvents=0;collapsible=0;recursiveResize=0;shape=mxgraph.aws4.groupCenter;grIcon=mxgraph.aws4.group_auto_scaling_group;grStroke=1;strokeColor=#336600;fillColor=#E6FFCC;verticalAlign=top;align=center;fontColor=#336600;dashed=1;spacingTop=25;" vertex="1" parent="JWYKsViawVH97r5eibI3-10">
          <mxGeometry x="70" y="360" width="340" height="120" as="geometry" />
        </mxCell>
        <mxCell id="JWYKsViawVH97r5eibI3-67" value="was-node" style="sketch=0;points=[[0,0,0],[0.25,0,0],[0.5,0,0],[0.75,0,0],[1,0,0],[0,1,0],[0.25,1,0],[0.5,1,0],[0.75,1,0],[1,1,0],[0,0.25,0],[0,0.5,0],[0,0.75,0],[1,0.25,0],[1,0.5,0],[1,0.75,0]];outlineConnect=0;fontColor=#232F3E;fillColor=#ED7100;strokeColor=#ffffff;dashed=0;verticalLabelPosition=bottom;verticalAlign=top;align=center;html=1;fontSize=12;fontStyle=0;aspect=fixed;shape=mxgraph.aws4.resourceIcon;resIcon=mxgraph.aws4.ec2;" vertex="1" parent="JWYKsViawVH97r5eibI3-66">
          <mxGeometry x="50" y="40" width="40" height="40" as="geometry" />
        </mxCell>
        <mxCell id="JWYKsViawVH97r5eibI3-68" value="was-node" style="sketch=0;points=[[0,0,0],[0.25,0,0],[0.5,0,0],[0.75,0,0],[1,0,0],[0,1,0],[0.25,1,0],[0.5,1,0],[0.75,1,0],[1,1,0],[0,0.25,0],[0,0.5,0],[0,0.75,0],[1,0.25,0],[1,0.5,0],[1,0.75,0]];outlineConnect=0;fontColor=#232F3E;fillColor=#ED7100;strokeColor=#ffffff;dashed=0;verticalLabelPosition=bottom;verticalAlign=top;align=center;html=1;fontSize=12;fontStyle=0;aspect=fixed;shape=mxgraph.aws4.resourceIcon;resIcon=mxgraph.aws4.ec2;" vertex="1" parent="JWYKsViawVH97r5eibI3-66">
          <mxGeometry x="250" y="40" width="40" height="40" as="geometry" />
        </mxCell>
        <mxCell id="JWYKsViawVH97r5eibI3-80" value="public-subnet-a2&amp;nbsp;&lt;div&gt;(10.0.16.0/20)&lt;/div&gt;" style="points=[[0,0],[0.25,0],[0.5,0],[0.75,0],[1,0],[1,0.25],[1,0.5],[1,0.75],[1,1],[0.75,1],[0.5,1],[0.25,1],[0,1],[0,0.75],[0,0.5],[0,0.25]];outlineConnect=0;gradientColor=none;html=1;whiteSpace=wrap;fontSize=12;fontStyle=0;container=1;pointerEvents=0;collapsible=0;recursiveResize=0;shape=mxgraph.aws4.group;grIcon=mxgraph.aws4.group_security_group;grStroke=0;strokeColor=#7AA116;fillColor=#F2F6E8;verticalAlign=top;align=left;spacingLeft=30;fontColor=#248814;dashed=0;" vertex="1" parent="JWYKsViawVH97r5eibI3-10">
          <mxGeometry x="280" y="90" width="160" height="40" as="geometry" />
        </mxCell>
        <mxCell id="JWYKsViawVH97r5eibI3-81" value="public-subnet-a1&lt;div&gt;(10.0.0.0/20)&lt;/div&gt;" style="points=[[0,0],[0.25,0],[0.5,0],[0.75,0],[1,0],[1,0.25],[1,0.5],[1,0.75],[1,1],[0.75,1],[0.5,1],[0.25,1],[0,1],[0,0.75],[0,0.5],[0,0.25]];outlineConnect=0;gradientColor=none;html=1;whiteSpace=wrap;fontSize=12;fontStyle=0;container=1;pointerEvents=0;collapsible=0;recursiveResize=0;shape=mxgraph.aws4.group;grIcon=mxgraph.aws4.group_security_group;grStroke=0;strokeColor=#7AA116;fillColor=#F2F6E8;verticalAlign=top;align=left;spacingLeft=30;fontColor=#248814;dashed=0;" vertex="1" parent="JWYKsViawVH97r5eibI3-10">
          <mxGeometry x="40" y="90" width="160" height="40" as="geometry" />
        </mxCell>
        <mxCell id="JWYKsViawVH97r5eibI3-84" style="edgeStyle=orthogonalEdgeStyle;rounded=0;orthogonalLoop=1;jettySize=auto;html=1;" edge="1" parent="JWYKsViawVH97r5eibI3-10" source="JWYKsViawVH97r5eibI3-66" target="JWYKsViawVH97r5eibI3-23">
          <mxGeometry relative="1" as="geometry">
            <Array as="points">
              <mxPoint x="500" y="440" />
              <mxPoint x="500" y="80" />
            </Array>
          </mxGeometry>
        </mxCell>
        <mxCell id="JWYKsViawVH97r5eibI3-90" value="7. Green 그룹&lt;div&gt;트래픽 라우팅&lt;/div&gt;" style="edgeLabel;html=1;align=center;verticalAlign=middle;resizable=0;points=[];" vertex="1" connectable="0" parent="JWYKsViawVH97r5eibI3-84">
          <mxGeometry x="-0.2203" y="-2" relative="1" as="geometry">
            <mxPoint as="offset" />
          </mxGeometry>
        </mxCell>
        <mxCell id="JWYKsViawVH97r5eibI3-108" value="9. Blue 그룹 삭제&lt;div&gt;(1일간 유지)&lt;/div&gt;" style="edgeStyle=orthogonalEdgeStyle;rounded=0;orthogonalLoop=1;jettySize=auto;html=1;curved=1;elbow=vertical;" edge="1" parent="JWYKsViawVH97r5eibI3-10" source="JWYKsViawVH97r5eibI3-48" target="JWYKsViawVH97r5eibI3-48">
          <mxGeometry x="-1" y="50" relative="1" as="geometry">
            <mxPoint x="-40" y="20" as="offset" />
          </mxGeometry>
        </mxCell>
        <mxCell id="JWYKsViawVH97r5eibI3-71" style="edgeStyle=orthogonalEdgeStyle;rounded=0;orthogonalLoop=1;jettySize=auto;html=1;" edge="1" parent="JWYKsViawVH97r5eibI3-9" source="JWYKsViawVH97r5eibI3-6" target="JWYKsViawVH97r5eibI3-67">
          <mxGeometry relative="1" as="geometry">
            <Array as="points">
              <mxPoint x="99" y="540" />
              <mxPoint x="379" y="540" />
            </Array>
          </mxGeometry>
        </mxCell>
        <mxCell id="JWYKsViawVH97r5eibI3-72" style="edgeStyle=orthogonalEdgeStyle;rounded=0;orthogonalLoop=1;jettySize=auto;html=1;" edge="1" parent="JWYKsViawVH97r5eibI3-9" source="JWYKsViawVH97r5eibI3-6" target="JWYKsViawVH97r5eibI3-68">
          <mxGeometry relative="1" as="geometry">
            <Array as="points">
              <mxPoint x="99" y="540" />
              <mxPoint x="579" y="540" />
            </Array>
          </mxGeometry>
        </mxCell>
        <mxCell id="JWYKsViawVH97r5eibI3-87" value="6. 변경사항 릴리즈" style="edgeLabel;html=1;align=center;verticalAlign=middle;resizable=0;points=[];" vertex="1" connectable="0" parent="JWYKsViawVH97r5eibI3-72">
          <mxGeometry x="-0.864" relative="1" as="geometry">
            <mxPoint y="22" as="offset" />
          </mxGeometry>
        </mxCell>
        <mxCell id="JWYKsViawVH97r5eibI3-86" style="edgeStyle=orthogonalEdgeStyle;rounded=0;orthogonalLoop=1;jettySize=auto;html=1;" edge="1" parent="JWYKsViawVH97r5eibI3-9" source="JWYKsViawVH97r5eibI3-4" target="JWYKsViawVH97r5eibI3-5">
          <mxGeometry relative="1" as="geometry" />
        </mxCell>
        <mxCell id="JWYKsViawVH97r5eibI3-4" value="CodePipeline" style="sketch=0;points=[[0,0,0],[0.25,0,0],[0.5,0,0],[0.75,0,0],[1,0,0],[0,1,0],[0.25,1,0],[0.5,1,0],[0.75,1,0],[1,1,0],[0,0.25,0],[0,0.5,0],[0,0.75,0],[1,0.25,0],[1,0.5,0],[1,0.75,0]];outlineConnect=0;fontColor=#232F3E;fillColor=#C925D1;strokeColor=#ffffff;dashed=0;verticalLabelPosition=middle;verticalAlign=middle;align=left;html=1;fontSize=12;fontStyle=0;aspect=fixed;shape=mxgraph.aws4.resourceIcon;resIcon=mxgraph.aws4.codepipeline;labelPosition=right;" vertex="1" parent="JWYKsViawVH97r5eibI3-9">
          <mxGeometry x="79" y="40" width="40" height="40" as="geometry" />
        </mxCell>
        <mxCell id="JWYKsViawVH97r5eibI3-89" style="edgeStyle=orthogonalEdgeStyle;rounded=0;orthogonalLoop=1;jettySize=auto;html=1;" edge="1" parent="JWYKsViawVH97r5eibI3-9" source="JWYKsViawVH97r5eibI3-5" target="JWYKsViawVH97r5eibI3-6">
          <mxGeometry relative="1" as="geometry" />
        </mxCell>
        <mxCell id="JWYKsViawVH97r5eibI3-5" value="CodeBuild" style="sketch=0;points=[[0,0,0],[0.25,0,0],[0.5,0,0],[0.75,0,0],[1,0,0],[0,1,0],[0.25,1,0],[0.5,1,0],[0.75,1,0],[1,1,0],[0,0.25,0],[0,0.5,0],[0,0.75,0],[1,0.25,0],[1,0.5,0],[1,0.75,0]];outlineConnect=0;fontColor=#232F3E;fillColor=#C925D1;strokeColor=#ffffff;dashed=0;verticalLabelPosition=middle;verticalAlign=middle;align=left;html=1;fontSize=12;fontStyle=0;aspect=fixed;shape=mxgraph.aws4.resourceIcon;resIcon=mxgraph.aws4.codebuild;labelPosition=right;" vertex="1" parent="JWYKsViawVH97r5eibI3-9">
          <mxGeometry x="79" y="160" width="40" height="40" as="geometry" />
        </mxCell>
        <mxCell id="JWYKsViawVH97r5eibI3-100" style="edgeStyle=orthogonalEdgeStyle;rounded=0;orthogonalLoop=1;jettySize=auto;html=1;" edge="1" parent="JWYKsViawVH97r5eibI3-9" source="JWYKsViawVH97r5eibI3-6" target="JWYKsViawVH97r5eibI3-48">
          <mxGeometry relative="1" as="geometry" />
        </mxCell>
        <mxCell id="JWYKsViawVH97r5eibI3-101" style="edgeStyle=orthogonalEdgeStyle;rounded=0;orthogonalLoop=1;jettySize=auto;html=1;" edge="1" parent="JWYKsViawVH97r5eibI3-9" source="JWYKsViawVH97r5eibI3-6" target="JWYKsViawVH97r5eibI3-66">
          <mxGeometry relative="1" as="geometry">
            <Array as="points">
              <mxPoint x="214" y="300" />
              <mxPoint x="214" y="460" />
            </Array>
          </mxGeometry>
        </mxCell>
        <mxCell id="JWYKsViawVH97r5eibI3-103" value="5. Blue 그룹 복사" style="edgeLabel;html=1;align=center;verticalAlign=middle;resizable=0;points=[];" vertex="1" connectable="0" parent="JWYKsViawVH97r5eibI3-101">
          <mxGeometry x="-0.7846" y="4" relative="1" as="geometry">
            <mxPoint x="39" y="4" as="offset" />
          </mxGeometry>
        </mxCell>
        <mxCell id="JWYKsViawVH97r5eibI3-6" value="CodeDeploy" style="sketch=0;points=[[0,0,0],[0.25,0,0],[0.5,0,0],[0.75,0,0],[1,0,0],[0,1,0],[0.25,1,0],[0.5,1,0],[0.75,1,0],[1,1,0],[0,0.25,0],[0,0.5,0],[0,0.75,0],[1,0.25,0],[1,0.5,0],[1,0.75,0]];outlineConnect=0;fontColor=#232F3E;fillColor=#C925D1;strokeColor=#ffffff;dashed=0;verticalLabelPosition=bottom;verticalAlign=top;align=center;html=1;fontSize=12;fontStyle=0;aspect=fixed;shape=mxgraph.aws4.resourceIcon;resIcon=mxgraph.aws4.codedeploy;labelPosition=center;labelBackgroundColor=default;" vertex="1" parent="JWYKsViawVH97r5eibI3-9">
          <mxGeometry x="79" y="280" width="40" height="40" as="geometry" />
        </mxCell>
        <mxCell id="JWYKsViawVH97r5eibI3-79" value="4. 빌드된 파일&amp;nbsp;&lt;div&gt;가져오기&lt;/div&gt;" style="edgeStyle=orthogonalEdgeStyle;rounded=0;orthogonalLoop=1;jettySize=auto;html=1;" edge="1" parent="JWYKsViawVH97r5eibI3-8" source="JWYKsViawVH97r5eibI3-7" target="JWYKsViawVH97r5eibI3-6">
          <mxGeometry x="0.3846" relative="1" as="geometry">
            <Array as="points">
              <mxPoint x="40" y="330" />
            </Array>
            <mxPoint as="offset" />
          </mxGeometry>
        </mxCell>
        <mxCell id="JWYKsViawVH97r5eibI3-7" value="S3&amp;nbsp;&lt;span style=&quot;background-color: transparent; color: light-dark(rgb(35, 47, 62), rgb(189, 199, 212));&quot;&gt;Bucket&lt;/span&gt;" style="sketch=0;points=[[0,0,0],[0.25,0,0],[0.5,0,0],[0.75,0,0],[1,0,0],[0,1,0],[0.25,1,0],[0.5,1,0],[0.75,1,0],[1,1,0],[0,0.25,0],[0,0.5,0],[0,0.75,0],[1,0.25,0],[1,0.5,0],[1,0.75,0]];outlineConnect=0;fontColor=#232F3E;fillColor=#7AA116;strokeColor=#ffffff;dashed=0;verticalLabelPosition=bottom;verticalAlign=top;align=center;html=1;fontSize=12;fontStyle=0;aspect=fixed;shape=mxgraph.aws4.resourceIcon;resIcon=mxgraph.aws4.s3;labelPosition=center;" vertex="1" parent="JWYKsViawVH97r5eibI3-8">
          <mxGeometry x="20" y="190" width="40" height="40" as="geometry" />
        </mxCell>
        <mxCell id="JWYKsViawVH97r5eibI3-76" style="edgeStyle=orthogonalEdgeStyle;rounded=0;orthogonalLoop=1;jettySize=auto;html=1;" edge="1" parent="JWYKsViawVH97r5eibI3-8" source="JWYKsViawVH97r5eibI3-5" target="JWYKsViawVH97r5eibI3-7">
          <mxGeometry relative="1" as="geometry" />
        </mxCell>
        <mxCell id="JWYKsViawVH97r5eibI3-85" value="3. 빌드&amp;amp;&lt;span style=&quot;background-color: light-dark(#ffffff, var(--ge-dark-color, #121212)); color: light-dark(rgb(0, 0, 0), rgb(255, 255, 255));&quot;&gt;업로드&lt;/span&gt;" style="edgeLabel;html=1;align=center;verticalAlign=middle;resizable=0;points=[];" vertex="1" connectable="0" parent="JWYKsViawVH97r5eibI3-76">
          <mxGeometry x="-0.0333" y="-1" relative="1" as="geometry">
            <mxPoint x="-11" y="1" as="offset" />
          </mxGeometry>
        </mxCell>
        <mxCell id="JWYKsViawVH97r5eibI3-92" style="edgeStyle=orthogonalEdgeStyle;rounded=0;orthogonalLoop=1;jettySize=auto;html=1;" edge="1" parent="1" source="JWYKsViawVH97r5eibI3-4" target="JWYKsViawVH97r5eibI3-2">
          <mxGeometry relative="1" as="geometry" />
        </mxCell>
        <mxCell id="JWYKsViawVH97r5eibI3-97" value="2. webhook으로&lt;div&gt;변경 사항 감지&lt;/div&gt;" style="edgeLabel;html=1;align=center;verticalAlign=middle;resizable=0;points=[];" vertex="1" connectable="0" parent="JWYKsViawVH97r5eibI3-92">
          <mxGeometry x="0.4897" relative="1" as="geometry">
            <mxPoint y="10" as="offset" />
          </mxGeometry>
        </mxCell>
      </root>
    </mxGraphModel>
  </diagram>
</mxfile>
